<svg width="22" height="21" viewBox="0 0 22 21" fill="none" xmlns="http://www.w3.org/2000/svg">
<path fill-rule="evenodd" clip-rule="evenodd" d="M1.2 10.072C1.2 5.17216 5.17216 1.2 10.072 1.2C11.3843 1.2 12.6285 1.48453 13.7476 1.9947C14.0491 2.13214 14.405 1.99914 14.5424 1.69762C14.6799 1.3961 14.5469 1.04024 14.2454 0.902794C12.9731 0.322822 11.5594 0 10.072 0C4.50942 0 0 4.50942 0 10.072C0 15.6345 4.50942 20.1439 10.072 20.1439C15.6345 20.1439 20.1439 15.6345 20.1439 10.072C20.1439 9.62371 20.1146 9.18199 20.0577 8.74869C20.0146 8.42014 19.7133 8.18877 19.3847 8.23191C19.0562 8.27506 18.8248 8.57638 18.8679 8.90493C18.9181 9.28656 18.9439 9.67609 18.9439 10.072C18.9439 14.9718 14.9718 18.9439 10.072 18.9439C5.17216 18.9439 1.2 14.9718 1.2 10.072ZM13.5943 7.59256C13.5943 7.05307 13.157 6.61572 12.6175 6.61572C12.078 6.61572 11.6406 7.05307 11.6406 7.59256C11.6406 8.13204 12.078 8.56939 12.6175 8.56939C13.157 8.56939 13.5943 8.13204 13.5943 7.59256ZM7.52761 6.61572C8.0671 6.61572 8.50445 7.05307 8.50445 7.59256C8.50445 8.13204 8.0671 8.56939 7.52761 8.56939C6.98813 8.56939 6.55078 8.13204 6.55078 7.59256C6.55078 7.05307 6.98813 6.61572 7.52761 6.61572ZM7.29852 11.1491C7.24451 10.8222 6.93569 10.6009 6.60875 10.6549C6.28181 10.7089 6.06055 11.0177 6.11456 11.3447C6.2855 12.3794 6.7407 13.175 7.43721 13.7212C8.12276 14.2589 8.98821 14.513 9.91482 14.5774L9.9356 14.5789H9.95644C10.9516 14.5789 11.8414 14.3298 12.5296 13.7654C13.2217 13.1979 13.642 12.3673 13.7994 11.3376C13.8495 11.01 13.6246 10.7039 13.2971 10.6538C12.9695 10.6037 12.6633 10.8286 12.6132 11.1562C12.4899 11.9627 12.1826 12.4981 11.7687 12.8375C11.3545 13.1771 10.7665 13.3754 9.97721 13.3788C9.2165 13.323 8.61391 13.119 8.17773 12.777C7.74852 12.4404 7.42735 11.929 7.29852 11.1491ZM17.4961 0.926905C17.4961 0.595534 17.7647 0.326904 18.0961 0.326904C18.4275 0.326904 18.6961 0.595533 18.6961 0.926904V3.1269H20.8961C21.2275 3.1269 21.4961 3.39553 21.4961 3.7269C21.4961 4.05827 21.2275 4.3269 20.8961 4.3269H18.6961V6.7269C18.6961 7.05827 18.4275 7.3269 18.0961 7.3269C17.7647 7.3269 17.4961 7.05827 17.4961 6.7269V4.3269H15.0961C14.7647 4.3269 14.4961 4.05828 14.4961 3.7269C14.4961 3.39553 14.7647 3.1269 15.0961 3.1269H17.4961V0.926905Z" fill="#181818"/>
</svg>
